<svg width="28" height="28" viewBox="0 0 28 28" fill="none" xmlns="http://www.w3.org/2000/svg">
<g clip-path="url(#clip0_364_22985)">
<path d="M25.6668 23.3333C25.6668 23.6428 25.5439 23.9395 25.3251 24.1583C25.1063 24.3771 24.8096 24.5 24.5002 24.5H3.50016C3.19074 24.5 2.894 24.3771 2.6752 24.1583C2.45641 23.9395 2.3335 23.6428 2.3335 23.3333V4.66667C2.3335 4.35725 2.45641 4.0605 2.6752 3.84171C2.894 3.62292 3.19074 3.5 3.50016 3.5H24.5002C24.8096 3.5 25.1063 3.62292 25.3251 3.84171C25.5439 4.0605 25.6668 4.35725 25.6668 4.66667V23.3333ZM12.8335 17.5H4.66683V22.1667H12.8335V17.5ZM23.3335 12.8333H15.1668V22.1667H23.3335V12.8333ZM12.8335 5.83333H4.66683V15.1667H12.8335V5.83333ZM23.3335 5.83333H15.1668V10.5H23.3335V5.83333Z" fill="#EEEEEE"/>
</g>
<defs>
<clipPath id="clip0_364_22985">
<rect width="28" height="28" fill="white"/>
</clipPath>
</defs>
</svg>
